<?xml version="1.0" encoding="utf-8"?>
<!-- Generator: Adobe Illustrator 19.1.0, SVG Export Plug-In . SVG Version: 6.00 Build 0)  -->
<svg version="1.1" id="Layer_1" xmlns="http://www.w3.org/2000/svg" xmlns:xlink="http://www.w3.org/1999/xlink" x="0px" y="0px"
	 viewBox="-270 182 250 250" enable-background="new -270 182 250 250" xml:space="preserve">
<path fill="#FFFFFF" d="M-165.9,409.1c-7.1,2.2-14.9,3.4-22.9,3.4c-9.1,0-17.6-1.2-25.8-3.4c-15.6-4.4-27.2-12.7-32.5-23.4
	c-2.4-4.6-3.5-9.5-3.5-14.7s1.1-10.7,3.5-15.9c8.5-20.2,31-33.9,56.1-33.9h0.7c-2-4-3.1-8.1-3.1-12.5c0-2.2,0.2-4.4,0.7-6.7
	c-26.3-0.2-45.9-21.6-45.9-49.8c0-20,14.3-39.2,34.6-47c6.2-2.4,12.3-3.6,18.5-3.6h56.1c2,0,3.6,1.4,4.2,3.4c0.5,2,0,4.2-1.6,5.4
	l-12.5,10.1c-0.7,0.6-1.6,1-2.5,1h-4.5c5.8,7.7,9.3,18.8,9.3,31.1c0,13.7-6.2,26.7-17.4,36.3c-8.7,7.5-9.1,9.7-9.1,13.9
	c0.2,2.4,6.2,10.1,12.9,15.3c15.6,12.3,21.4,24.4,21.4,44.6C-129.3,383.9-143.6,402.1-165.9,409.1L-165.9,409.1z M-39.3,302.3
	c0,2.6-2,4.8-4.3,4.8h-31.7v35.5c0,2.6-2,4.8-4.3,4.8h-9.1c-2.4,0-4.3-2.2-4.3-4.8v-35.5h-32.1c-2.4,0-4.3-2.2-4.3-4.8v-10.1
	c0-2.6,2-4.8,4.3-4.8h31.9v-35.5c0-2.6,2-4.8,4.3-4.8h9.1c2.4,0,4.3,2.2,4.3,4.8v35.3h31.7c2.4,0,4.3,2.2,4.3,4.8L-39.3,302.3
	L-39.3,302.3z M-183,286.2c4.5,0,8.3-2,11.4-5.9c4.7-5.9,6.7-15.7,5.4-26c-2.2-18.6-14-33.9-26.5-34.3h-0.5c-4.3,0-8.3,2-11.2,5.9
	c-4.7,5.9-6.5,15.1-5.3,25.4c2.2,18.4,14.3,34.3,26.5,34.7h0.2L-183,286.2L-183,286.2z M-169.4,341.9l-3.8-2.8c-3.8-1.2-7.8-2-12-2
	h-0.5c-19,0-35.7,12.9-35.7,27.5c0,15.9,14.3,28.5,32.7,28.5c24.1,0,36.3-9.3,36.3-27.5c0-1.8-0.2-3.4-0.5-5.2
	C-154.8,353-160.5,348.6-169.4,341.9z"/>
</svg>
