<?xml version="1.0" encoding="utf-8"?>
<!-- Generator: Adobe Illustrator 19.1.0, SVG Export Plug-In . SVG Version: 6.00 Build 0)  -->
<svg version="1.1" id="Layer_1" xmlns="http://www.w3.org/2000/svg" xmlns:xlink="http://www.w3.org/1999/xlink" x="0px" y="0px"
	 width="250px" height="250px" viewBox="-180 272 250 250" style="enable-background:new -180 272 250 250;" xml:space="preserve">
<style type="text/css">
	.st0{fill:#FFFFFF;}
</style>
<g id="w8k4S7.tif">
	<g id="_x34_43NsC.tif">
		<g>
			<path class="st0" d="M49.7,313.1c-0.5-4.8-2.5-8.9-5.6-12.5c-4.2-4.9-9.5-7.7-16-8.4c-0.2,0-0.4-0.1-0.6-0.2h-164.8
				c-0.9,0.2-1.9,0.3-2.8,0.5c-9.9,1.9-17.7,9.8-19.3,19.8c-0.1,0.8-0.3,1.5-0.5,2.2v164.8c0.1,0.4,0.2,0.8,0.3,1.2
				c1.2,10.5,9.4,19.2,19.8,21c0.5,0.1,1,0.2,1.5,0.3H28.6c0.7-0.1,1.4-0.3,2.1-0.4c9.7-2.1,17-9.5,18.9-19.3
				c0.1-0.5,0.2-1.1,0.3-1.6V313.4C49.8,313.3,49.8,313.2,49.7,313.1z M-14.5,324.4c0-4.5,3.6-8,8-8c8.1,0,16.1,0,24.2,0
				c4.5,0,8,3.5,8,8.1v12.1c0,4,0,8.1,0,12.1c0,3.6-2.4,6.8-6,7.7c-0.7,0.2-1.3,0.3-2,0.3c-8.1,0-16.2,0-24.3,0c-4.5,0-8-3.6-8-8
				C-14.5,340.6-14.5,332.5-14.5,324.4z M-54.8,356.7c22.3,0,40.3,18.1,40.3,40.4c0,22.2-18.1,40.2-40.3,40.2
				c-22.3,0-40.3-18-40.3-40.3C-95.2,375.1-77.4,356.7-54.8,356.7z M24.1,474.5c-1.6,2-3.7,3-6.3,3.1c-0.3,0-0.5,0-0.8,0
				c-47.9,0-95.7,0-143.6,0c-1.1,0-2.2-0.1-3.3-0.4c-3.1-1-5.2-3.7-5.5-7c0-0.4,0-0.9,0-1.3V381c0.6-0.2,16.4-0.3,18.2-0.1
				c-4.3,17.7-1.9,34.4,7.6,50c6.3,10.4,15,18.2,25.8,23.7c10.3,5.2,21.3,7.4,32.8,6.8c6.4-0.3,12.5-1.7,18.5-3.8
				c6-2.2,11.5-5.2,16.5-9c5.1-3.8,9.5-8.3,13.3-13.5c3.8-5.1,6.7-10.7,8.8-16.8c2.1-6,3.3-12.2,3.5-18.5c0.3-6.4-0.5-12.6-2-18.9
				h18.2v36.5c0,17.3,0,34.6,0,51.8C25.8,471.2,25.3,473,24.1,474.5z"/>
		</g>
	</g>
</g>
</svg>
