<?xml version="1.0" encoding="utf-8"?>
<!-- Generator: Adobe Illustrator 19.1.0, SVG Export Plug-In . SVG Version: 6.00 Build 0)  -->
<svg version="1.1" id="Layer_1" xmlns="http://www.w3.org/2000/svg" xmlns:xlink="http://www.w3.org/1999/xlink" x="0px" y="0px"
	 viewBox="-270 182 250 250" enable-background="new -270 182 250 250" xml:space="preserve">
<g id="EnjpRR.tif">
	<path fill="#FFFFFF" d="M-173,394.5c0-8.7-0.1-17.4-0.1-26c0-30,0-59.9-0.1-89.9c0-2,0.6-2.3,2.4-2.3c11.5,0.1,23.1,0.1,34.6,0
		c1.7,0,2.3,0.4,2.2,2.2c-0.1,4.5,0,9.1,0,13.6c0.8,0.2,0.9-0.4,1.2-0.8c10-14.8,24.4-19.6,41.3-17.3c20.6,2.9,33.5,16.5,36.9,37.9
		c0.5,3.1,0.7,6.2,1.1,9.4c0.1,0.6-0.3,1.4,0.6,1.6v0.6c-0.6,1-0.3,2.1-0.3,3.1v64.8c0,1,0.2,2.1-0.2,3.1c-0.3,0.1-0.5,0.3-0.8,0.3
		h-37c-0.7,0-1.3-0.1-1.9-0.5c-1.1-1.4-0.8-3.1-0.8-4.7v-61.2c0-3.7-0.5-7.2-1.7-10.7c-3.2-9.4-11.5-14-21.3-11.8
		c-10,2.3-16.4,10.7-16.5,22.2c-0.1,10.2,0,20.4,0,30.6v31.8c0,1.5,0.4,3.1-1,4.3l-37.4,0.1C-172,394.8-172.5,394.9-173,394.5z"/>
	<path fill="#FFFFFF" d="M-53.5,394.5l0.1-43.1V326c0-0.8-0.6-1.9,0.6-2.5v71C-53,394.8-53.2,394.8-53.5,394.5L-53.5,394.5z"/>
	<path fill="#FFFFFF" d="M-53.5,394.5c0.2,0,0.5,0,0.7,0.1c-0.5,1.2-1.5,0.5-2.3,0.5h-37.8c0-0.4,0-0.9,0.1-1.3
		c0.6,1.1,1.7,0.7,2.6,0.7H-53.5L-53.5,394.5z M-194.9,394.4l0.1,0.8h-39.5c0-0.2,0-0.5,0.1-0.7c1.1-0.9,2.3-0.8,3.5-0.8h32.3
		C-197.2,393.7-196,393.5-194.9,394.4z M-134.1,394.5v0.6H-173v-0.6H-134.1z"/>
	<path fill="#FFFFFF" d="M-216,219.3v-0.5h2.9v0.5C-214,220.2-215,220.2-216,219.3z M-237.2,238.2h0.5c0.9,1,0.9,1.9,0,2.9h-0.6
		C-237.2,240.1-237.2,239.2-237.2,238.2z"/>
	<path fill="#FFFFFF" d="M-194.9,394.4h-39.4c0-38.5,0-77.1-0.1-115.6c0-2,0.5-2.5,2.5-2.5c11.4,0.1,22.9,0.1,34.3,0
		c2.3,0,2.6,0.7,2.6,2.8C-194.9,317.5-194.9,355.9-194.9,394.4z M-236.7,241.1v-2.9c2.2-11.9,7.8-17.1,20.7-18.9h2.9
		c6.2,0.6,11.9,2.3,15.9,7.3c5.1,6.3,6.2,13.5,3.4,20.9c-2.9,7.5-9,11.3-16.8,12.4c-3.9,0.5-7.8,0.5-11.6-0.8
		C-231,256.3-235.5,250.1-236.7,241.1z"/>
</g>
</svg>
